<?xml version="1.0" encoding="UTF-8" standalone="no"?>
<!-- Created with Inkscape (http://www.inkscape.org/) -->

<svg
   width="63.541187mm"
   height="133.75266mm"
   viewBox="0 0 63.541187 133.75266"
   version="1.1"
   id="svg1"
   xml:space="preserve"
   inkscape:version="1.3 (0e150ed, 2023-07-21)"
   sodipodi:docname="red-pin.svg"
   xmlns:inkscape="http://www.inkscape.org/namespaces/inkscape"
   xmlns:sodipodi="http://sodipodi.sourceforge.net/DTD/sodipodi-0.dtd"
   xmlns="http://www.w3.org/2000/svg"
   xmlns:svg="http://www.w3.org/2000/svg"><sodipodi:namedview
     id="namedview1"
     pagecolor="#ffffff"
     bordercolor="#000000"
     borderopacity="0.25"
     inkscape:showpageshadow="2"
     inkscape:pageopacity="0.0"
     inkscape:pagecheckerboard="0"
     inkscape:deskcolor="#d1d1d1"
     inkscape:document-units="mm"
     showguides="true"
     inkscape:zoom="0.48431634"
     inkscape:cx="57.813453"
     inkscape:cy="402.6294"
     inkscape:window-width="1920"
     inkscape:window-height="1027"
     inkscape:window-x="0"
     inkscape:window-y="25"
     inkscape:window-maximized="1"
     inkscape:current-layer="g1" /><defs
     id="defs1" /><g
     inkscape:label="Layer 1"
     inkscape:groupmode="layer"
     id="layer1"
     transform="translate(-14.863473,-82.710195)"><g
       id="g1"
       transform="translate(-44.810145,48.673089)"><g
         id="g6"><path
           style="fill:#a9a9aa"
           d="m 62.098459,167.73055 c 1.77788,-7.47745 3.784681,-14.89983 5.652495,-22.35564 2.335798,-9.06148 4.576542,-18.15054 6.972499,-27.19478 1.088779,-0.29998 2.287881,0.7505 3.435284,0.91493 1.402511,0.4903 2.959189,0.59221 4.277385,1.27949 -0.280204,1.21616 -0.933481,2.38675 -1.376924,3.575 -6.226811,14.54013 -12.375803,29.11437 -18.714735,43.60598 0.152318,-0.0977 -0.257157,0.40052 -0.246004,0.17502 z"
           id="path4"
           sodipodi:nodetypes="cccccccc" /><path
           style="fill:#d41534"
           d="m 84.025691,120.73017 c -6.797418,-0.9509 -13.462651,-3.86165 -18.213497,-8.9091 -2.836695,-3.00437 -5.207443,-6.65043 -6.007399,-10.75576 -0.538908,-2.058929 0.701964,-3.929001 1.558151,-5.697345 2.250241,-4.372644 5.410657,-8.603503 10.055053,-10.606452 2.114922,-0.944472 4.413127,-1.396342 6.703239,-1.648714 6.072351,3.717845 8.711953,4.990959 20.279685,5.987387 1.122657,-0.215556 12.116877,7.812849 10.639217,20.104364 -0.31703,3.06566 -1.31841,6.35982 -3.95773,8.21711 -4.00655,2.83506 -9.057401,3.49753 -13.842117,3.66098 -2.408307,0.069 -4.827808,-0.008 -7.214602,-0.35247 z"
           id="path1" /><path
           id="path2"
           style="fill:#ec3549"
           d="m 93.134327,34.038141 c -4.60139,-0.0377 -9.58173,0.946188 -12.987321,4.262789 -1.784293,1.724997 -3.216872,4.556557 -2.734366,7.093854 0.589373,3.456616 3.271755,5.924985 5.953683,7.961249 5.799879,4.214089 12.890516,7.052747 19.938447,7.420011 2.51953,0.213148 5.08675,0.289657 7.60455,0.11985 1.94904,-0.07193 3.81987,-0.846831 5.58534,-1.666009 1.42383,-0.553688 2.51241,-0.97581 3.74112,-2.149913 0.96373,-1.015774 1.56476,-1.440416 2.14121,-2.669947 1.2012,-1.999702 1.05183,-4.551236 -0.0724,-6.547921 -2.0749,-3.789505 -5.77665,-6.346668 -9.47074,-8.396904 -6.06619,-3.17942 -12.81411,-5.300648 -19.699573,-5.427059 z m -8.661623,25.484455 c -1.409768,4.373942 -2.469946,9.3838 -3.641502,13.824774 -1.05395,4.413306 -2.383887,8.76707 -3.183785,13.236918 -0.206076,1.536761 1.416567,2.484265 2.313037,3.493844 2.348068,2.210434 5.36485,3.689449 8.527645,4.278808 3.087711,0.262397 6.224197,0.176589 9.260417,-0.476456 1.142925,-3.413826 2.285814,-6.82741 3.428734,-10.241236 1.98796,-5.898428 4.14788,-12.277503 6.33629,-18.073516 -2.74418,-0.333822 -5.1334,-0.968566 -7.874274,-1.381078 -5.48299,1.518357 -10.439666,-4.188957 -15.166562,-4.662058 z"
           sodipodi:nodetypes="ccccccccccccccccccccccc" /><path
           style="fill:#d41534"
           d="M 99.599729,65.555722 C 94.954013,64.738777 90.36222,63.291216 86.260514,60.932828 83.764352,59.346553 81.765314,57.070036 80.040827,54.694164 78.370268,51.95539 77.689775,48.74297 77.391998,45.58149 c 0.837059,1.855372 1.823959,3.671096 3.307951,5.096343 4.122159,4.106962 9.565986,6.59724 15.053123,8.318071 3.136696,1.005524 6.400198,1.593755 9.697278,1.643331 3.36194,0.04661 6.87537,0.195789 10.02843,-1.177161 1.97947,-0.753962 3.86948,-1.788067 5.3901,-3.277817 -0.80435,1.720347 -1.77916,3.38657 -3.21991,4.658137 -4.90924,4.752461 -11.56805,5.296016 -18.049241,4.713328 z"
           id="path6" /></g></g></g></svg>
